<svg width="19" height="19" viewBox="0 0 19 19" fill="none" xmlns="http://www.w3.org/2000/svg">
<path d="M18.4053 8.82327C18.4049 8.82286 18.4045 8.82245 18.4041 8.82204L11.0615 1.47974C10.7485 1.16663 10.3324 0.994141 9.88982 0.994141C9.44721 0.994141 9.0311 1.16649 8.71799 1.4796L1.37926 8.81819C1.37679 8.82066 1.37432 8.82327 1.37184 8.82574C0.729144 9.47215 0.730243 10.5209 1.375 11.1657C1.66957 11.4604 2.05863 11.6311 2.4746 11.649C2.49149 11.6506 2.50852 11.6514 2.52568 11.6514H2.81833V17.0549C2.81833 18.1242 3.68831 18.9941 4.75783 18.9941H7.63048C7.92162 18.9941 8.15782 18.7581 8.15782 18.4668V14.2305C8.15782 13.7425 8.55471 13.3457 9.04264 13.3457H10.737C11.2249 13.3457 11.6218 13.7425 11.6218 14.2305V18.4668C11.6218 18.7581 11.8579 18.9941 12.1492 18.9941H15.0218C16.0913 18.9941 16.9613 18.1242 16.9613 17.0549V11.6514H17.2327C17.6751 11.6514 18.0913 11.4791 18.4045 11.166C19.0499 10.5201 19.0502 9.46954 18.4053 8.82327Z" fill="#7089B4"/>
</svg>
